<svg xmlns="http://www.w3.org/2000/svg" xmlns:xlink="http://www.w3.org/1999/xlink"
    version="1.1" x="0px" y="0px" viewBox="0 0 467.9 414">
    <path d="M428.7,51.5l-51.8-5.4C376.2,20.5,355.2,0,329.5,0h-191C112.7,0,91.8,20.5,91,46.1l-51.8,5.4c-24,2.5-41.5,24-39,48  l25.5,245.9c2.3,22.3,21,39.2,43.4,39.2c1.5,0,3.1-0.1,4.6-0.2l20.8-2.2c7.1,17.2,24.1,29.3,43.9,29.3h191  c19.8,0,36.7-12.1,43.8-29.3l20.8,2.2c1.5,0.2,3,0.2,4.5,0.2c22.4-0.1,41.1-17,43.5-39.2l25.5-245.9C470.2,75.5,452.7,54,428.7,51.5  z M72.2,369.5C72.2,369.5,72.2,369.5,72.2,369.5c-15.8,1.6-29.9-9.8-31.5-25.6L15.2,98C13.5,82.2,25,68.1,40.8,66.4L91,61.2v302.9  c0,1.2,0.1,2.3,0.1,3.4L72.2,369.5z M329.5,396.5H138.4c-14.8,0-27.3-10-31.2-23.6c-0.1-0.4-0.2-0.9-0.3-1.3  c-0.6-2.4-0.9-4.9-0.9-7.5V53.6c0-0.5,0-0.9,0-1.4v-4.8c0-17.9,14.5-32.4,32.4-32.4h191c17.9,0,32.4,14.5,32.4,32.4v316.7  C361.9,382,347.4,396.5,329.5,396.5z M452.8,98l-25.5,245.9c-1.7,15.8-15.8,27.2-31.5,25.6l-18.9-2c0.1-1.1,0.1-2.3,0.1-3.4V61.2  l50.2,5.2C443,68.1,454.4,82.2,452.8,98z"/>
</svg>
